<svg xmlns="http://www.w3.org/2000/svg" xmlns:xlink="http://www.w3.org/1999/xlink" version="1.1" width="1000" height="1000" viewBox="0 0 1000 1000" xml:space="preserve">
<desc>Created with Fabric.js 3.5.0</desc>
<defs>
</defs>
<rect x="0" y="0" width="100%" height="100%" fill="#191818"/>
<g transform="matrix(0.3871 0 0 0.4923 482.391 504.5699)" id="900152">
<g style="" vector-effect="non-scaling-stroke">
		<g transform="matrix(0.1333 0 0 -0.1333 -0.3334 -0.25)">
<path style="stroke: none; stroke-width: 1; stroke-dasharray: none; stroke-linecap: butt; stroke-dashoffset: 0; stroke-linejoin: miter; stroke-miterlimit: 4; is-custom-font: none; font-file-url: none; fill: rgb(255,255,255); fill-rule: nonzero; opacity: 1;" transform=" translate(-10000, -7500)" d="M 0 7500 l 0 -7500 l 10000 0 l 10000 0 l 0 7500 l 0 7500 l -10000 0 l -10000 0 l 0 -7500 z m 4053 1890 c 558 -349 1014 -636 1013 -637 c -1 -2 -474 224 -1052 501 l -1049 503 l -3 158 l -3 157 l 40 -23 c 21 -13 496 -310 1054 -659 z m 3500 369 c -8 -7 -2064 -996 -2093 -1006 c -8 -3 460 292 1040 655 l 1055 661 l 3 -151 c 1 -83 -1 -155 -5 -159 z m -3734 -538 c 701 -330 1278 -604 1283 -609 c 4 -4 7 -832 6 -1840 l -3 -1831 l -1297 611 l -1298 611 l 0 1835 c 0 1742 1 1834 18 1829 c 9 -3 590 -275 1291 -606 z m 4189 -1226 l -3 -1835 l -1285 -606 c -707 -333 -1291 -608 -1298 -611 c -10 -4 -12 363 -10 1833 l 3 1838 l 1290 608 c 710 334 1293 608 1298 608 c 4 0 6 -826 5 -1835 z m 1552 720 c 177 -43 315 -154 393 -316 c 69 -142 82 -217 82 -449 c -1 -222 -14 -327 -75 -566 c -126 -495 -366 -876 -634 -1008 c -128 -63 -176 -71 -411 -71 c -177 0 -217 3 -256 18 c -48 18 -69 47 -69 94 c 0 15 117 488 261 1051 c 143 563 259 1026 257 1028 c -2 2 -45 -2 -96 -8 c -121 -15 -127 -11 -118 91 c 7 82 23 117 64 132 c 79 30 482 33 602 4 z m 3101 -24 c 30 -24 34 58 -46 -1120 c -35 -525 -63 -956 -62 -958 c 2 -1 115 226 252 505 c 137 279 367 746 511 1038 c 298 604 266 560 400 552 c 90 -6 119 -26 117 -82 c -1 -25 -156 -333 -563 -1118 c -309 -596 -574 -1098 -589 -1117 c -46 -59 -91 -76 -214 -79 l -107 -4 l -34 34 c -21 21 -37 49 -41 72 c -11 55 110 2227 124 2255 c 18 32 45 40 142 40 c 71 1 91 -2 110 -18 z m -1755 -695 c 93 -43 160 -130 190 -246 c 14 -54 16 -98 11 -255 c -8 -305 -62 -525 -187 -775 c -93 -185 -163 -280 -254 -345 c -82 -58 -170 -87 -271 -89 c -96 -1 -150 21 -224 93 c -90 88 -126 203 -124 401 c 5 492 247 1050 516 1187 c 80 40 125 52 212 52 c 64 1 90 -4 131 -23 z m 5321 -10 c 69 -34 151 -118 202 -203 c 47 -80 57 -114 42 -142 c -15 -28 -174 -113 -196 -105 c -9 4 -36 48 -60 99 c -85 184 -184 210 -304 80 c -55 -59 -79 -115 -90 -207 c -11 -88 -1 -156 28 -179 c 25 -21 88 -41 193 -64 c 49 -10 91 -26 116 -45 c 81 -59 126 -212 105 -358 c -15 -98 -33 -154 -91 -272 c -37 -76 -60 -110 -121 -171 c -47 -46 -97 -86 -131 -102 c -113 -55 -248 -59 -349 -10 c -110 53 -241 222 -241 312 c 0 30 8 43 57 88 c 90 84 127 85 163 1 c 47 -111 142 -208 202 -208 c 72 0 179 96 220 198 c 18 46 22 77 23 162 c 0 165 -12 181 -172 220 c -124 30 -187 69 -227 140 c -28 50 -31 65 -34 160 c -4 120 11 197 60 294 c 84 168 207 289 334 330 c 76 25 205 16 271 -18 z m -4301 9 c 120 -36 296 -197 280 -258 c -8 -33 -103 -127 -128 -127 c -12 0 -51 29 -93 69 c -44 42 -90 75 -118 86 l -47 18 l -55 -27 c -203 -100 -438 -649 -434 -1018 c 1 -121 6 -136 58 -175 c 79 -60 123 -42 275 116 c 81 84 97 87 174 36 c 42 -29 52 -41 52 -64 c 0 -50 -80 -142 -229 -262 c -104 -85 -163 -113 -220 -105 c -62 8 -224 89 -271 136 c -119 119 -109 451 26 859 c 56 168 115 290 201 410 c 189 263 354 358 529 306 z m 3643 5 c 51 -27 31 -70 -93 -199 c -138 -144 -256 -307 -256 -351 c 0 -39 24 -92 60 -133 c 60 -67 51 -79 -83 -102 c -108 -20 -131 -8 -192 99 c -24 41 -30 46 -35 30 c -4 -10 -63 -235 -131 -499 c -146 -569 -129 -535 -264 -535 c -101 0 -125 9 -125 49 c 0 33 403 1568 420 1600 c 16 30 50 41 128 41 c 83 0 110 -7 117 -30 c 3 -10 -17 -105 -44 -211 c -28 -106 -47 -188 -42 -183 c 5 5 32 45 61 89 c 131 197 242 319 305 334 c 54 12 152 13 174 1 z m -1288 -29 c 122 -37 170 -133 170 -338 c 0 -114 -22 -201 -78 -302 c -118 -218 -372 -424 -665 -540 l -57 -23 l -7 -54 c -10 -86 2 -142 42 -182 c 28 -28 39 -33 61 -27 c 46 11 135 77 226 168 c 54 53 96 87 109 87 c 28 0 104 -49 119 -77 c 10 -18 8 -29 -15 -66 c -58 -101 -221 -249 -340 -309 c -46 -24 -74 -32 -116 -32 c -115 0 -244 82 -291 186 c -22 49 -24 65 -23 218 c 0 193 24 325 101 564 c 174 543 462 817 764 727 z m 3014 4 c 118 -31 170 -101 185 -253 c 25 -239 -42 -406 -244 -608 c -146 -145 -324 -261 -508 -329 c -47 -17 -48 -18 -50 -64 c -5 -129 11 -181 67 -208 c 33 -16 35 -16 91 18 c 31 19 103 78 159 132 c 57 53 111 97 122 97 c 32 0 112 -57 119 -85 c 19 -77 -274 -354 -420 -395 c -61 -17 -106 -8 -196 37 c -85 43 -139 104 -162 182 c -23 80 -16 304 15 451 c 101 485 290 846 511 975 c 105 61 204 77 311 50 z" stroke-linecap="round"/>
</g>
		<g transform="matrix(0.1333 0 0 -0.1333 -88.8562 -2.261)">
<path style="stroke: none; stroke-width: 1; stroke-dasharray: none; stroke-linecap: butt; stroke-dashoffset: 0; stroke-linejoin: miter; stroke-miterlimit: 4; is-custom-font: none; font-file-url: none; fill: rgb(255,255,255); fill-rule: nonzero; opacity: 1;" transform=" translate(-9333.6908, -7516.711)" d="M 9385 8496 c -3 -6 -115 -443 -250 -971 c -135 -528 -248 -968 -251 -979 c -6 -17 1 -18 118 -15 c 117 4 127 6 193 38 c 160 79 325 309 438 611 c 43 115 109 375 133 525 c 25 150 25 386 1 475 c -41 153 -121 258 -228 297 c -67 25 -149 35 -154 19 z" stroke-linecap="round"/>
</g>
		<g transform="matrix(0.1333 0 0 -0.1333 77.6316 46.6616)">
<path style="stroke: none; stroke-width: 1; stroke-dasharray: none; stroke-linecap: butt; stroke-dashoffset: 0; stroke-linejoin: miter; stroke-miterlimit: 4; is-custom-font: none; font-file-url: none; fill: rgb(255,255,255); fill-rule: nonzero; opacity: 1;" transform=" translate(-10582.304, -7149.8805)" d="M 10655 7761 c -80 -48 -189 -231 -254 -426 c -104 -311 -115 -755 -20 -805 c 26 -14 76 -12 108 5 c 77 39 201 234 266 415 c 67 188 102 421 92 615 c -6 120 -21 173 -58 199 c -31 21 -97 20 -134 -3 z" stroke-linecap="round"/>
</g>
		<g transform="matrix(0.1333 0 0 -0.1333 527.1702 17.3116)">
<path style="stroke: none; stroke-width: 1; stroke-dasharray: none; stroke-linecap: butt; stroke-dashoffset: 0; stroke-linejoin: miter; stroke-miterlimit: 4; is-custom-font: none; font-file-url: none; fill: rgb(255,255,255); fill-rule: nonzero; opacity: 1;" transform=" translate(-13953.841, -7370.0678)" d="M 14052 7733 c -108 -53 -221 -267 -322 -608 c -21 -71 -36 -132 -34 -134 c 2 -2 32 10 66 27 c 217 107 372 270 429 452 c 33 108 26 245 -15 272 c -19 13 -90 8 -124 -9 z" stroke-linecap="round"/>
</g>
		<g transform="matrix(0.1333 0 0 -0.1333 931.7433 17.0847)">
<path style="stroke: none; stroke-width: 1; stroke-dasharray: none; stroke-linecap: butt; stroke-dashoffset: 0; stroke-linejoin: miter; stroke-miterlimit: 4; is-custom-font: none; font-file-url: none; fill: rgb(255,255,255); fill-rule: nonzero; opacity: 1;" transform=" translate(-16988.1385, -7371.7703)" d="M 17079 7730 c -81 -43 -152 -153 -234 -363 c -49 -125 -121 -365 -112 -373 c 3 -3 34 9 68 27 c 276 139 440 358 443 589 c 1 114 -14 140 -82 140 c -26 -1 -63 -9 -83 -20 z" stroke-linecap="round"/>
</g>
</g>
</g>
</svg>